<?xml version="1.0" encoding="utf-8"?>
<!-- Generator: Adobe Illustrator 25.0.0, SVG Export Plug-In . SVG Version: 6.00 Build 0)  -->
<svg version="1.1" id="Layer_1" xmlns="http://www.w3.org/2000/svg" xmlns:xlink="http://www.w3.org/1999/xlink" x="0px" y="0px"
	 viewBox="0 0 414.6 50.1" style="enable-background:new 0 0 414.6 50.1;" xml:space="preserve">
<style type="text/css">
	.st0{fill:#A71C4A;}
	.st1{fill:#222222;}
</style>
<g>
	<path class="st0" d="M46.6,24.3c0.3,0.3,0.5,0.5,0.8,0.6c1.6,1.2,3.2,2.5,4.9,3.7c0.5,0.3,1.2,0.6,1.8,0.6c3.6,0.1,7.2,0,10.8,0
		c1,0,2.1,0,3.1,0c0.2,0,0.6-0.3,0.6-0.4c0-1.5,0-3,0-4.5H46.6z M41.3,3.1H18.2c2.1,1.5,3.9,3,5.8,4.3c0.4,0.3,1,0.5,1.5,0.5
		c4.9,0,9.9,0,14.8,0c0.3,0,0.7,0,1-0.1V3.1z M41.7,22.9c0-0.1,0-0.1,0.1-0.2C33.2,16.3,24.7,9.9,16.1,3.4v19.5H41.7z M43.7,24.2v20
		h26.6C61.4,37.4,52.7,30.9,43.7,24.2 M3,44.2c1.8,0,3.5,0,5.3,0c0.3,0,0.6-0.1,0.9-0.3c9.4-6.4,18.8-12.7,28.2-19.1
		c0.1-0.1,0.3-0.2,0.6-0.5h-1.3c-7.4,0-14.8,0-22.2,0c-1.6,0-3-0.5-4.3-1.5C3.9,18,4.3,6.9,10.9,2.7c0.9-0.6,2.1-1,3.1-1
		c9.4-0.1,18.7,0,28.1,0c2,0,3.6,1.2,3.9,2.9c0.4,1.9-0.5,3.7-2.3,4.4c-0.6,0.2-1.3,0.3-1.9,0.3c-4.6,0-9.3,0-13.9,0h-1
		c0,0.1-0.1,0.1-0.1,0.2c5.1,3.9,10.3,7.7,15.5,11.7C48.3,15.1,54.2,9,60,3h-5.8V1.7h22.7V3c-1.7,0-3.4,0-5,0c-0.5,0-1,0.2-1.5,0.4
		c-8.8,5.9-17.5,11.8-26.2,17.8c-0.3,0.2-0.6,0.4-0.9,0.6c0.7,0.7,1.4,1.2,2.5,1.2c7.7,0,15.4,0,23.1,0c0.5,0,1,0,1.5,0.1
		c2,0.4,3.1,2.1,3,4.2c-0.2,1.9-1.8,3.3-3.7,3.3c-4.4,0-8.8,0-13.1,0h-1.1c0,0.1-0.1,0.2-0.1,0.2c6.4,4.8,12.9,9.7,19.5,14.7
		c-0.4,0-0.6,0.1-0.8,0.1c-10.7,0-21.4,0-32.2,0c-1.8,0-3.3-0.8-4.5-2c-3.6-3.6-4.6-8-3.4-12.9c0.1-0.3,0.2-0.7,0.3-1
		c0,0,0-0.1-0.1-0.1c-4.8,4.9-9.6,9.9-14.2,14.7h6v1.4h-1.1c-6.9,0-13.7,0-20.6,0c-0.4,0-0.7,0-1.1,0.1V44.2z"/>
	<path class="st1" d="M390.8,39.2c-0.1,0.1-0.3,0.3-0.4,0.3c-2.5,0-5,0-7.4,0c0-0.1-0.1-0.2-0.1-0.2c0.2-0.1,0.3-0.3,0.5-0.3
		c2.3,0,2.7-1.2,2.7-2.9c0.1-6.9,0.1-13.7,0-20.6c0-1.8-0.2-2.9-2.8-3.2c-0.1,0-0.3-0.2-0.4-0.3c0-0.1,0.1-0.2,0.1-0.3h4.4
		c2.1,0,2.1,0,2.8,2c2.3,6.4,4.7,12.7,7.1,19.3c0.7-1.8,1.3-3.4,1.9-5.1c1.9-5.2,3.8-10.4,5.8-15.6c0.1-0.2,0.3-0.5,0.5-0.5
		c2,0,4,0,6,0c0,0.1,0,0.2,0.1,0.3c-0.2,0.1-0.3,0.2-0.5,0.2c-2.3,0-2.7,1.2-2.7,2.8c-0.1,7-0.1,14,0,21.1c0,1.7,0.5,2.9,2.8,2.8
		c0.1,0,0.2,0.1,0.6,0.1c-0.3,0.2-0.4,0.4-0.5,0.4c-3,0-6.1,0-9.1,0c0-0.1-0.1-0.2-0.1-0.2c0.2-0.1,0.4-0.3,0.5-0.3
		c2.1,0,2.6-1.1,2.6-2.8c0.1-6.5,0-13,0-19.6c0,0,0,0-0.1-0.2c-2.8,7.7-5.7,15.4-8.5,23.1c-0.1,0-0.2,0-0.3,0
		c-2.8-7.7-5.6-15.3-8.5-23c-0.1,0-0.1,0-0.2,0v1c0,5.9,0,11.7,0,17.6c0,0.7,0.1,1.5,0.2,2.2c0.1,0.9,1,1.5,1.9,1.6c0.3,0,0.7,0,1,0
		C390.8,39.1,390.8,39.1,390.8,39.2"/>
	<path class="st1" d="M339.9,18v0.6c0,5.8,0,11.6,0,17.3c0,1,0.1,2.1,1,2.6c0.6,0.3,1.4,0.4,2.2,0.6c-0.2,0.1-0.3,0.3-0.4,0.3
		c-2.5,0-5,0-7.4,0c0-0.1-0.1-0.2-0.1-0.3c0.2-0.1,0.4-0.3,0.6-0.3c2.1,0,2.6-1.1,2.6-2.8c0.1-6.8,0.1-13.6,0-20.4
		c0-1.4-1.4-2.4-2.8-2.9c-0.4-0.2-0.9-0.2-1.4-0.3v-0.8c1.8,0,3.7,0,5.5,0c0.3,0,0.6,0.3,0.8,0.5c3.8,5.8,7.7,11.7,11.5,17.6
		c0.5,0.8,1,1.7,1.7,2.7c0-0.5,0.1-0.8,0.1-1c0-5.4,0-10.8,0-16.2c0-1.9-0.6-3.2-2.7-3.1c-0.1,0-0.3,0-0.3-0.1
		c-0.1-0.1-0.1-0.2-0.1-0.4h7.8c0,0.1,0.1,0.1,0.1,0.2c-0.2,0.1-0.3,0.3-0.5,0.3c-2.1-0.1-2.7,1.2-2.7,3.1c0,7,0,13.9,0,20.9v3.5
		c-0.1,0.1-0.1,0.1-0.2,0.2c-0.3-0.2-0.6-0.4-0.8-0.7c-3.7-5.6-7.4-11.2-11.1-16.8c-1-1.5-2-3.1-3-4.6C340,18,339.9,18,339.9,18"/>
	<path class="st1" d="M161.2,39.5h-7.3c0.2-0.2,0.2-0.4,0.3-0.5c1.5-0.5,2-1,2-2.5c0-3.9,0-7.8,0-11.7c0-0.5-0.1-1-0.2-1.4
		c-0.2-0.6-0.7-1-1.4-0.7c-0.1,0.1-0.4-0.1-0.6-0.1c0.1-0.2,0.2-0.4,0.4-0.5c1.1-0.6,2.2-1.2,3.3-1.8c0.3-0.2,0.7-0.2,1.2-0.3v4
		c0.7-0.9,1.3-1.7,1.9-2.4c1-1,2.2-1.8,3.8-1.5c1.8,0.4,2.5,1.8,2.9,3.5c0,0.1,0,0.2,0.1,0.4c0.6-0.8,1.1-1.4,1.6-2.2
		c1.3-1.8,3.8-2.3,5.3-1.1c1.1,0.9,1.6,2.1,1.7,3.4c0.2,4.1,0.1,8.1,0.2,12.2c0,0.7,0.3,1.4,0.6,1.9c0.2,0.3,0.8,0.4,1.1,0.6
		c0.2,0.1,0.3,0.2,0.5,0.3c0,0.1-0.1,0.1-0.1,0.2h-7.2c0-0.1-0.1-0.1-0.1-0.2c0.2-0.1,0.4-0.3,0.5-0.3c1.2,0,1.9-0.9,1.9-2.1
		c0-3.6,0-7.3,0-10.9c0-0.6-0.1-1.2-0.3-1.7c-0.8-2-2.4-2.2-4.1-0.9c-0.5,0.4-1,0.9-1.4,1.4c-0.2,0.2-0.3,0.5-0.3,0.8
		c0,3.7,0,7.5,0,11.2c0,1.3,0.6,1.9,1.9,2.2c0.2,0,0.4,0.1,0.6,0.2c0,0.1,0,0.2-0.1,0.2h-7.4c0-0.1-0.1-0.1-0.1-0.2
		c0.2-0.1,0.3-0.3,0.5-0.3c1.4-0.3,1.9-0.9,1.9-2.3c0-3.5,0.1-7,0-10.5c0-1.3-0.1-2.8-1.7-3.4c-0.1-0.1-0.3-0.1-0.4-0.2
		c-1.6-0.3-4,1.8-4,3.4c0,3.4,0,6.8,0,10.2c0,0.5,0.1,1,0.2,1.4c0.1,1,0.7,1.3,1.6,1.4c0.2,0,0.4,0.2,0.7,0.2
		C161.3,39.3,161.3,39.4,161.2,39.5"/>
	<path class="st1" d="M207.6,39.5h-8.1c0.2-0.2,0.3-0.4,0.4-0.5c2.4-0.7,3.7-2.5,5-4.5c1.6-2.5,3.1-5,4.7-7.5
		c0.5-0.7,0.6-1.3,0.1-2.1c-1.8-3.2-3.4-6.5-5.2-9.7c-0.9-1.5-2.1-2.6-4-2.9c-0.1,0-0.2-0.2-0.5-0.4h10.6c-0.3,0.2-0.4,0.4-0.6,0.5
		c-2.2,0.4-2.2,1.8-1.5,3.2c1.2,2.3,2.4,4.7,3.6,7.1c1.5-2.5,3.1-5,4.5-7.5c1-1.6-0.1-2.9-1.6-2.8c-0.2,0-0.3-0.2-0.5-0.2
		c0-0.1,0-0.1,0.1-0.2h7.9c0.1,0.1,0.2,0.3,0.4,0.4c-0.2,0-0.4,0.1-0.6,0.1c-1.9,0.3-3,1.7-4,3.2c-1.7,2.6-3.2,5.3-4.9,7.9
		c-0.3,0.5-0.4,1-0.1,1.5c2.1,3.9,4.2,7.8,6.3,11.7c0.7,1.2,1.6,2.1,3,2.3c0.2,0,0.3,0.2,0.3,0.5h-9.7c0.3-0.2,0.5-0.4,0.6-0.5
		c1.5-0.4,2.1-1.2,1.5-2.6c-0.8-1.9-1.9-3.8-2.8-5.6c-0.5-1-1.1-2-1.7-3.2c-0.6,0.9-1.2,1.8-1.7,2.7c-1.2,1.9-2.4,3.8-3.4,5.7
		c-0.6,1.2-0.6,2.6,1.3,3c0.2,0,0.4,0.2,0.5,0.3C207.7,39.3,207.7,39.4,207.6,39.5"/>
	<path class="st1" d="M197,11.8c0.1,2,0.2,4,0.3,5.9c-0.8,0.4-0.8-0.3-0.9-0.6c-0.2-0.6-0.3-1.2-0.4-1.8c-0.4-1.5-1.5-2.1-2.8-2.1
		c-2.2-0.1-4.4,0-6.7,0v11.1c2.1-0.1,4.2-0.1,6.3-0.3c1-0.1,1.2-1.1,1.4-2c0.1-0.4,0.1-0.9,0.2-1.3c0-0.2,0.2-0.3,0.5-0.3v9.2
		c-0.1,0-0.2,0.1-0.3,0.1c-0.1-0.5-0.3-0.9-0.4-1.4c-0.1-0.9-0.3-1.8-1.2-2.2c-0.4-0.2-0.9-0.4-1.4-0.4c-1.7,0-3.4,0-5.3,0v0.9
		c0,3.2,0,6.4,0,9.6c0,1.3,0.5,1.8,1.8,1.8c1.8,0,3.6-0.1,5.4-0.2c1.6,0,2.4-1.1,3.1-2.3c0.5-0.8,0.8-1.8,1.3-2.6
		c0.1-0.2,0.4-0.4,0.7-0.6c0.1,0.1,0.1,0.1,0.2,0.2c-0.5,2.2-1.1,4.3-1.7,6.5c-0.1,0.2-0.4,0.5-0.6,0.5c-5.4,0-10.8,0-16.2,0
		c-0.1,0-0.2-0.1-0.5-0.2c0.4-0.2,0.6-0.3,0.8-0.3c1.8-0.1,2.6-0.9,2.6-2.6c0-7.1,0-14.2,0-21.2c0-1,0-2.3-1.4-2.7
		c-0.4-0.1-0.8-0.1-1.2-0.1c-0.2,0-0.4-0.2-0.6-0.3c0-0.1,0-0.1,0.1-0.2H197z"/>
	<path class="st1" d="M224.2,39.3c0.3-0.1,0.5-0.3,0.7-0.3c1.8-0.2,2.6-0.9,2.6-2.6c0-7.1,0-14.2,0-21.2c0-1.1-0.1-2.4-1.5-2.7
		c-0.5-0.1-1.1-0.1-1.7-0.4c0.2-0.1,0.3-0.3,0.5-0.3c5.5,0,10.9,0,16.5,0c0.1,2,0.2,4,0.3,6c-0.8,0.4-0.8-0.3-0.9-0.6
		c-0.2-0.5-0.3-1.1-0.4-1.7c-0.3-1.4-1.3-2.1-2.6-2.2c-2.3-0.1-4.6,0-6.9,0v11.1c2.1-0.1,4.2-0.1,6.3-0.3c1-0.1,1.2-1.2,1.5-2
		c0.1-0.4,0.1-0.9,0.2-1.4c0-0.2,0.1-0.3,0.1-0.5c0.1,0.1,0.2,0.2,0.3,0.3v9.2c-0.1,0-0.2,0.1-0.3,0.1c-0.1-0.4-0.3-0.9-0.4-1.3
		c-0.1-0.9-0.4-1.8-1.3-2.3c-0.3-0.2-0.7-0.3-1.1-0.3c-1.8,0-3.6,0-5.5,0V28c0,2.8,0,5.5,0,8.3c0,1.2,0.5,1.7,1.7,1.7
		c1.8,0,3.6-0.1,5.5-0.2c1.6,0,2.4-1.1,3.1-2.3c0.5-0.8,0.9-1.8,1.3-2.6c0.1-0.2,0.4-0.4,0.7-0.6c0.1,0.1,0.1,0.1,0.2,0.2
		c-0.6,2.2-1.1,4.4-1.7,6.5c-0.1,0.2-0.4,0.4-0.6,0.4c-5.4,0-10.9,0-16.3,0C224.4,39.5,224.4,39.4,224.2,39.3"/>
	<path class="st1" d="M304.5,17.8c-1,0.2-0.8-0.5-1-0.9c-0.4-0.9-0.5-2-1.1-2.7c-0.4-0.5-1.3-0.9-2-0.9c-2.2-0.1-4.5,0-6.8,0v10.8
		c2,0,3.9,0,5.9,0c1.3,0,1.6-1.1,1.9-2c0.1-0.4,0.1-0.9,0.2-1.3c0-0.1,0.2-0.3,0.5-0.6v9.5c-0.1,0-0.2,0.1-0.3,0.1
		c-0.1-0.4-0.4-0.7-0.4-1.1c-0.1-2.2-1.2-2.9-3.4-2.9c-1.5,0-2.9,0-4.5,0c0,0.3,0,0.6,0,0.9c0,3.2,0,6.4,0,9.6
		c0,1.3,0.5,1.8,1.8,1.8c1.8,0,3.6-0.1,5.5-0.2c1.6-0.1,2.4-1.2,3-2.3c0.5-0.8,0.8-1.8,1.3-2.6c0.1-0.2,0.5-0.4,0.7-0.6
		c0,0.1,0.1,0.1,0.1,0.2c-0.5,2.1-1.1,4.3-1.7,6.4c-0.1,0.2-0.4,0.6-0.7,0.6c-5.4,0-10.8,0-16.2,0c-0.1,0-0.1,0-0.4-0.1
		c0.3-0.2,0.5-0.4,0.6-0.4c1.9,0,2.7-1.1,2.7-3c0-6.9,0-13.7,0-20.6c0-0.6,0-1.3-0.2-1.9c-0.3-0.9-1.1-1.2-1.9-1.2
		c-0.3,0-0.7-0.1-1-0.1c0-0.1,0-0.2,0-0.3h16.9C304.3,13.8,304.4,15.8,304.5,17.8"/>
	<path class="st1" d="M84.5,30.5c0.1,0.4,0.3,0.7,0.3,1.1c0.4,1.8,0.7,3.7,2.1,5c1.5,1.3,3.1,2,5.2,1.6c2.1-0.4,3.5-3.1,3.1-5.2
		c-0.4-2.3-2.1-3.6-3.9-4.9c-1.5-1.1-3.1-2.2-4.6-3.4c-3.4-2.9-3.8-8-1.2-11.3c1.8-2.3,4.9-2.8,7.2-1.7c0.5,0.3,1.1,0.6,1.6,0.8
		c0.9,0.4,1.2,0.2,1.6-0.7c0.1-0.3,0.3-0.5,0.4-0.8c0.1,0,0.2,0.1,0.2,0.1v9.4c-0.1,0-0.2,0.1-0.3,0.1c-0.1-0.4-0.2-0.8-0.4-1.2
		c-0.4-1.3-0.7-2.7-1.3-3.9c-0.8-1.5-2.2-2.6-4-2.7c-3-0.3-4.6,2.7-4.2,4.9c0.3,1.5,1.2,2.6,2.4,3.5c2.4,1.8,4.9,3.5,7.1,5.5
		c3.6,3.3,2.9,9.6-1.2,12.3c-2.1,1.4-4.3,1.2-6.5,0.3c-0.7-0.3-1.4-0.6-2.2-0.9c-0.7-0.2-1.2-0.1-1.3,0.8c0,0.3-0.3,0.6-0.4,0.9
		c-0.1,0-0.2-0.1-0.3-0.1v-9.4C84.3,30.6,84.4,30.6,84.5,30.5"/>
	<path class="st1" d="M369.6,17.5c-1.4,3.8-2.7,7.5-4,11.2h7.5C371.9,24.9,370.8,21.3,369.6,17.5 M382,39.5h-8.7
		c0.1-0.2,0.1-0.4,0.3-0.5c2.2-0.8,2.4-1.2,1.8-3.5c-0.4-1.5-1-3-1.4-4.5c-0.2-0.6-0.4-0.8-1-0.8c-2.4,0-4.7,0-7.1,0
		c-0.5,0-0.8,0.1-0.9,0.5c-0.6,1.9-1.2,3.7-1.7,5.6c-0.4,1.4,0.1,2.2,1.5,2.5c0.4,0.1,0.7,0.3,1,0.4c0,0.1,0,0.2-0.1,0.2h-7.2
		c0.3-0.3,0.5-0.6,0.7-0.6c1-0.2,1.6-0.9,1.9-1.8c0.9-2.3,1.7-4.6,2.5-6.8c2.3-6.3,4.5-12.6,6.7-19h0.9c1.3,4.1,2.5,8.3,3.8,12.5
		c0.9,2.8,1.7,5.5,2.6,8.2c0.5,1.6,1.1,3.2,1.6,4.7c0.4,1.1,1.2,1.9,2.3,2.3c0.2,0.1,0.3,0.2,0.5,0.3C382,39.3,382,39.4,382,39.5"/>
	<path class="st1" d="M251.5,11.8h9.2c0,0.1,0.1,0.2,0.1,0.2c-0.3,0.1-0.5,0.4-0.8,0.4c-1.5,0.4-2,1.2-1.6,2.7
		c0.8,2.6,1.6,5.1,2.5,7.6c1.1,3.4,2.2,6.8,3.4,10.2c0.1,0.2,0.2,0.3,0.3,0.6c1.2-3.8,2.4-7.5,3.6-11.3c0.7-2.4,1.4-4.8,2.1-7.2
		c0.4-1.3-0.1-2.2-1.4-2.7c-0.3-0.1-0.5-0.3-0.8-0.4c0-0.1,0.1-0.2,0.1-0.2h6.7c-0.1,0.2-0.2,0.5-0.3,0.6c-1.7,0.5-2.2,2-2.7,3.3
		c-2,5.9-3.8,11.9-5.7,17.9c-0.7,2.1-1.3,4.2-2,6.4c-0.7,0.2-1,0.1-1.3-0.7c-1.3-4-2.7-8.1-4-12.1c-1.4-4-2.7-8-4.1-12
		c-0.5-1.5-1.2-2.7-2.9-2.9C251.9,12.3,251.8,12.1,251.5,11.8"/>
	<path class="st1" d="M312.1,39.1c0.1,0,0.3-0.1,0.4-0.1c2.2,0,2.8-1.1,2.8-2.7c0.1-7.6,0-15.2,0-22.8c0,0,0-0.1-0.1-0.3
		c-1.4,0.1-3,0.1-4.5,0.3c-1.1,0.1-2.1,1.9-2.3,3.5c0,0.4-0.2,0.8-0.3,1.2c-0.1,0-0.2-0.1-0.3-0.1v-6.2H326c0.1,2.1,0.2,4.1,0.3,6.2
		c-0.1,0-0.2,0.1-0.3,0.1c-0.1-0.3-0.4-0.7-0.4-1c-0.2-1.4-0.6-2.6-1.9-3.4c-0.4-0.2-1-0.5-1.4-0.5c-1.2-0.1-2.5,0-3.8,0
		c0,0.3,0,0.6,0,0.9c0,7.2,0,14.5,0,21.7c0,0.6,0.1,1.2,0.2,1.7c0.2,0.8,1.2,1.4,2.1,1.4c0.3,0,0.5,0.1,0.8,0.2c0,0.1,0,0.2-0.1,0.3
		c-3.1,0-6.2,0-9.4,0C312.2,39.4,312.1,39.2,312.1,39.1"/>
	<path class="st1" d="M99.9,20.8h7.2c0,0.1,0.1,0.1,0.1,0.2c-0.2,0.1-0.3,0.2-0.5,0.3c-1.2,0.3-1.7,0.9-1.3,2.1c0.3,1,0.6,2,1,3
		c1,2.6,2,5.1,3.1,7.9c0.2-0.4,0.4-0.7,0.5-1c1-3,2-5.9,2.9-8.9c0.2-0.7,0.3-1.5,0.2-2.3c0-0.3-0.6-0.5-0.9-0.8
		c-0.2-0.1-0.4-0.2-0.6-0.3c0-0.1,0-0.1,0.1-0.2h4.8c-0.2,0.3-0.3,0.5-0.5,0.5c-0.9,0.4-1.3,1.2-1.6,2.1c-2,6.2-4.1,12.5-6.2,18.7
		c-0.5,1.7-1.1,3.3-2.2,4.7c-0.9,1.1-2.7,1.9-4,1.6c-0.9-0.2-1.6-1.8-1.3-2.9c0.3-1.1,1.2-1.6,2.3-1.3c0.4,0.1,0.9,0.3,1.3,0.5
		c0.7,0.4,1.4,0.1,1.7-0.5c0.9-1.8,1.7-3.7,2.2-5.6c0.2-0.6-0.5-1.4-0.7-2.1c-1.7-4.2-3.3-8.4-5-12.5c-0.4-1-0.9-2.1-2.1-2.5
		C100.3,21.2,100.2,21,99.9,20.8"/>
	<path class="st1" d="M149.3,26.4c-0.2-1-0.2-1.9-0.5-2.8c-0.5-1.7-2.2-2.6-3.6-2.1c-1.6,0.6-2.8,2.9-2.6,4.9H149.3z M152.6,27.8
		h-10.2c0,3.2,0.5,6.1,3.1,8.2c1.7,1.4,4.6,0.8,5.6-1.2c0.4-0.7,0.7-1.4,1.1-2.3c0.1,0.4,0.2,0.7,0.2,0.8c-0.6,2.2-1.3,4.4-3.2,5.9
		c-1.8,1.3-4.5,1.2-6.1-0.4c-1.8-1.7-2.6-3.7-2.9-6.1c-0.4-2.7-0.2-5.4,0.8-8c0.8-2.3,3.2-4.7,5.9-4.6c2.6,0.1,4.5,2,5.2,4.5
		C152.4,25.6,152.4,26.6,152.6,27.8"/>
	<path class="st1" d="M276,11.8c3.1,0,6.2,0,9.4,0c0,0,0,0.2,0.1,0.5c-0.4,0-0.9-0.1-1.2,0c-1.4,0.3-1.9,1.1-1.9,3
		c-0.1,3.5,0,7.1,0,10.6c0,3.4,0,6.8,0,10.2c0,1.2,0.3,2.3,1.6,2.7c0.3,0.1,0.7,0.1,1,0.2c0.2,0,0.4,0.2,0.6,0.2
		c0,0.1,0,0.2-0.1,0.2H276c0-0.1-0.1-0.1-0.1-0.2c0.2-0.1,0.3-0.3,0.5-0.3c2.1,0.1,2.7-1.2,2.7-3.2c0-6.4,0-12.7,0-19.1
		c0-0.9,0-1.8-0.2-2.7c-0.2-1.2-1-1.7-2.2-1.8c-0.3,0-0.5-0.1-0.8-0.2C275.9,12,276,11.9,276,11.8"/>
	<path class="st1" d="M118.9,40.3c-0.2-0.4-0.5-0.7-0.5-0.9c0-2.1,0-4.2,0-6.3c0.1,0,0.2-0.1,0.3-0.1c0.1,0.3,0.3,0.6,0.4,0.9
		c0.3,1.3,0.8,2.5,1.6,3.5c1.1,1.4,3.1,1.9,4.2,1c1.4-1.2,1.6-3.5,0.2-4.8c-1.3-1.2-2.7-2.2-4.2-3.1c-3.4-2.2-3.2-6.4-1.1-9
		c0.8-1,2.7-1.5,4-1.1c0.4,0.1,0.8,0.2,1.1,0.4c0.7,0.2,1.4,0.5,1.8-0.4c0-0.1,0.3-0.1,0.5-0.1v6.3c-0.1,0-0.2,0.1-0.3,0.1
		c-0.1-0.3-0.3-0.5-0.4-0.8c-0.4-1-0.7-2-1.1-2.9c-0.5-1.1-2.3-1.7-3.5-1.2c-2,0.8-1.9,3.6-0.8,4.5c1.1,1,2.3,1.8,3.5,2.5
		c1.8,1.1,3.2,2.4,3.7,4.6c0.8,3.6-2.1,7.7-6.2,6.6c-0.6-0.2-1.2-0.2-1.8-0.4C119.7,39.3,119.2,39.2,118.9,40.3"/>
	<path class="st1" d="M134.9,14.4v6.3h3.5V22H135v1.1c0,3.8,0,7.6,0,11.5c0,0.5,0,1.1,0.2,1.6c0.2,0.5,0.7,1.3,1.1,1.3
		c0.5,0,1.1-0.5,1.6-0.9c0.3-0.2,0.5-0.4,0.9-0.5c-0.4,1.2-0.8,2.4-1.8,3.2c-1.9,1.6-4,0.1-4.3-1.8c-0.2-0.7-0.2-1.5-0.2-2.3
		c0-4,0-8,0-12V22h-2.8c0.3-0.4,0.4-0.8,0.6-0.9c1.9-1.1,2.9-2.8,3.7-4.7c0.3-0.7,0.6-1.4,0.8-2.1C134.8,14.4,134.9,14.4,134.9,14.4
		"/>
	<path class="st1" d="M295,44.3c0-1.3,0.8-2.3,1.8-2.3c1.1,0,1.9,1,1.9,2.3c0,1.3-0.8,2.3-1.9,2.3S295,45.6,295,44.3"/>
	<path class="st1" d="M293.3,8.7c0.8-0.8,1.7-1.6,2.5-2.5c0.5-0.5,2.7-0.5,3.2,0c0.8,0.8,1.7,1.6,2.5,2.5c0,0.1-0.1,0.2-0.1,0.3
		c-0.9-0.3-1.8-0.6-2.6-1c-1.1-0.7-2.1-0.5-3.2,0.1c-0.7,0.4-1.5,0.7-2.3,1C293.4,9,293.4,8.9,293.3,8.7"/>
</g>
</svg>
